<?xml version="1.0" encoding="utf-8"?>
<!-- Generator: Adobe Illustrator 26.3.1, SVG Export Plug-In . SVG Version: 6.00 Build 0)  -->
<svg version="1.1" id="_イヤー_1" xmlns="http://www.w3.org/2000/svg" xmlns:xlink="http://www.w3.org/1999/xlink" x="0px"
	 y="0px" viewBox="0 0 1024 419.2" style="enable-background:new 0 0 1024 419.2;" xml:space="preserve">
<style type="text/css">
	.st0{fill:url(#SVGID_1_);}
	.st1{fill:url(#SVGID_00000034089001456214401400000011394170905424478849_);}
	.st2{fill:url(#SVGID_00000145044786546783495960000000338899661651513742_);}
	.st3{fill:url(#SVGID_00000066495204051840544230000010007653606543659409_);}
	.st4{fill:url(#SVGID_00000083797290388251147180000012633231061968841350_);}
</style>
<linearGradient id="SVGID_1_" gradientUnits="userSpaceOnUse" x1="178.276" y1="308.0818" x2="181.0074" y2="658.9534" gradientTransform="matrix(1 0 0 1 0 -254)">
	<stop  offset="2.200000e-02" style="stop-color:#FBB03B"/>
	<stop  offset="1" style="stop-color:#F7931E"/>
</linearGradient>
<path class="st0" d="M179.6,49.5C83.1,49.5,4.9,127.7,4.9,224.2s78.2,174.7,174.7,174.7s174.7-78.2,174.7-174.7
	S276.1,49.5,179.6,49.5z M282.8,337.5c-9.1,14.2-21.9,24.8-38.4,31.7c-16.6,6.9-37.2,10.4-61.9,10.4c-36,0-63.6-8.3-82.9-25
	C80.3,338,68.8,313.7,65,281.9l55.9-5.4c3.4,18.8,10.2,32.6,20.5,41.4c10.3,8.8,24.2,13.2,41.7,13.2c18.5,0,32.5-3.9,41.8-11.7
	c9.4-7.8,14.1-17,14.1-27.5c0-6.7-2-12.5-5.9-17.2c-4-4.7-10.8-8.8-20.7-12.3c-6.7-2.3-22.1-6.5-46-12.4
	c-30.8-7.6-52.4-17-64.9-28.2C84,206.1,75.3,187,75.3,164.5c0-14.5,4.1-28.1,12.3-40.7s20.1-22.2,35.5-28.8
	c15.5-6.6,34.1-9.9,56-9.9c35.7,0,62.6,7.8,80.7,23.5c18.1,15.7,27.5,36.6,28.4,62.7l-57.5,2.5c-2.5-14.6-7.7-25.1-15.8-31.6
	c-8.1-6.4-20.2-9.6-36.4-9.6c-16.7,0-29.8,3.4-39.2,10.3c-6.1,4.4-9.1,10.3-9.1,17.7c0,6.7,2.8,12.5,8.5,17.3
	c7.2,6.1,24.9,12.4,52.8,19c28,6.6,48.6,13.4,62,20.5s23.9,16.7,31.5,28.9c7.6,12.2,11.4,27.3,11.4,45.3
	C296.4,308,291.9,323.3,282.8,337.5L282.8,337.5z"/>
<linearGradient id="SVGID_00000016047263715160003140000011650923063209097381_" gradientUnits="userSpaceOnUse" x1="451.1727" y1="428.3632" x2="422.4557" y2="596.9255" gradientTransform="matrix(1 0 0 1 0 -254)">
	<stop  offset="0" style="stop-color:#FBB03B"/>
	<stop  offset="1" style="stop-color:#F7931E"/>
</linearGradient>
<path style="fill:url(#SVGID_00000016047263715160003140000011650923063209097381_);" d="M459.2,310.5l43.2,7.3
	c-7.1,20-17.6,35.2-31.6,45.7c-13.9,10.4-30.1,15.7-48.5,15.7c-21,0-37.6-6.5-49.9-19.5S354,328.8,354,305.9
	c0-18.6,3.7-36.2,11.1-52.8c7.4-16.6,18.6-29.6,33.6-39.1s31.4-14.3,49.2-14.3c19.4,0,34.9,5.3,46.4,15.8
	c11.6,10.6,18.1,24.4,19.5,41.6l-42.3,4.7c-1-9.6-3.8-16.6-8.4-21.1s-10.6-6.8-18-6.8c-8.6,0-16.6,3.3-24,10S408,260.6,404,273.8
	c-4,13.3-6,25.7-6,37.4c0,10.1,2.4,17.9,7.1,23.4s10.7,8.2,17.8,8.2c7.1,0,14-2.7,20.6-8.1C450.4,329.4,455.5,321.3,459.2,310.5
	L459.2,310.5z"/>
<linearGradient id="SVGID_00000076574092780429536730000009843967215312300426_" gradientUnits="userSpaceOnUse" x1="612.1516" y1="455.3236" x2="583.4331" y2="623.886" gradientTransform="matrix(1 0 0 1 0 -254)">
	<stop  offset="0" style="stop-color:#FBB03B"/>
	<stop  offset="1" style="stop-color:#F7931E"/>
</linearGradient>
<path style="fill:url(#SVGID_00000076574092780429536730000009843967215312300426_);" d="M540.1,210.8h42.1l-4.3,21.4
	c10.5-9.1,20.4-15.6,29.5-19.4c9.1-3.9,18.8-5.8,28.9-5.8c13.5,0,24.2,3.9,32,11.6s11.7,18,11.7,30.8c0,5.8-1.7,16.7-5.1,32.8
	l-19.4,93.1H611l19.5-93.4c2.9-13.9,4.3-22.3,4.3-24.9c0-5.7-1.7-10.1-5-13.4c-3.4-3.3-8-4.9-14-4.9c-6.5,0-13.7,2.7-21.7,8.2
	s-14.2,12.7-18.7,21.7c-3.3,6.4-7,19.5-11.2,39.2l-14.1,67.5h-44.5L540.1,210.8L540.1,210.8z"/>
<linearGradient id="SVGID_00000121963880702852594130000017795689206008226954_" gradientUnits="userSpaceOnUse" x1="773.9561" y1="483.1233" x2="745.2376" y2="651.6855" gradientTransform="matrix(1 0 0 1 0 -254)">
	<stop  offset="0" style="stop-color:#FBB03B"/>
	<stop  offset="1" style="stop-color:#F7931E"/>
</linearGradient>
<path style="fill:url(#SVGID_00000121963880702852594130000017795689206008226954_);" d="M743.8,257.4l-43.4-3.7
	c5-14.7,13.6-26.1,25.9-34.4c12.3-8.3,28.7-12.4,49-12.4c21.2,0,36.8,4.3,46.9,12.8c10.1,8.5,15.2,18.9,15.2,31.2
	c0,5-0.4,10.2-1.3,15.8c-0.9,5.6-3.9,20.2-9.2,44c-4.3,19.6-6.5,33.4-6.5,41.2c0,7,1.2,14.8,3.7,23.4H781c-1.8-6-2.8-12.2-3.3-18.6
	c-6.5,7.2-14,12.8-22.5,16.7s-17,5.8-25.6,5.8c-13.6,0-24.9-4.5-33.8-13.4c-8.9-8.9-13.3-20.4-13.3-34.5c0-15.7,4.9-28.2,14.6-37.6
	c9.8-9.4,27.2-15.1,52.3-17c21.2-1.8,35.3-3.9,42.4-6.4c1.9-6.2,2.8-11.2,2.8-14.9c0-4.7-1.9-8.7-5.7-11.9c-3.8-3.2-9.5-4.8-17-4.8
	c-8,0-14.2,1.6-18.8,4.9C748.6,246.8,745.5,251.4,743.8,257.4L743.8,257.4z M786.1,298.6c-2.7,0.7-6.2,1.4-10.7,2
	c-22.3,2.7-36.9,6.6-43.7,11.8c-4.9,3.7-7.3,8.7-7.3,15c0,5.2,1.9,9.5,5.6,13.1c3.7,3.6,8.6,5.3,14.7,5.3c6.7,0,13-1.6,19-4.9
	c5.9-3.3,10.4-7.4,13.3-12.5c2.9-5.1,5.5-13.1,7.8-23.9L786.1,298.6L786.1,298.6z"/>
<linearGradient id="SVGID_00000173134502331586904560000015848303712080423056_" gradientUnits="userSpaceOnUse" x1="925.3681" y1="508.9192" x2="896.6497" y2="677.4814" gradientTransform="matrix(1 0 0 1 0 -254)">
	<stop  offset="0" style="stop-color:#FBB03B"/>
	<stop  offset="1" style="stop-color:#F7931E"/>
</linearGradient>
<path style="fill:url(#SVGID_00000173134502331586904560000015848303712080423056_);" d="M918,375.3h-38.3l-33-164.5h43.7l11.6,71.7
	c3.2,19.4,5.1,32.3,5.7,38.7c0.8-1.8,4.4-8.4,10.8-20.1c6.4-11.6,10.2-18.6,11.7-21l40.9-69.4h48L918,375.3L918,375.3z"/>
</svg>
