<?xml version="1.0" encoding="UTF-8"?>
<svg id="_レイヤー_1" data-name="レイヤー 1" xmlns="http://www.w3.org/2000/svg" width="200" height="200" viewBox="0 0 200 200">
  <defs>
    <style>
      .cls-1 {
        fill: #7c7c7c;
      }
    </style>
  </defs>
  <path class="cls-1" d="m102.789,23.482l22.802,46.202c.534,1.083,1.567,1.833,2.762,2.007l50.987,7.409c3.009.437,4.21,4.135,2.033,6.257l-36.894,35.963c-.865.843-1.259,2.057-1.055,3.247l8.71,50.781c.514,2.997-2.631,5.282-5.322,3.867l-45.604-23.975c-1.069-.562-2.345-.562-3.414,0l-45.604,23.975c-2.691,1.415-5.836-.87-5.322-3.867l8.71-50.781c.204-1.19-.19-2.404-1.055-3.247l-36.894-35.963c-2.177-2.122-.976-5.82,2.033-6.257l50.987-7.409c1.195-.174,2.228-.924,2.762-2.007l22.802-46.202c1.346-2.726,5.233-2.726,6.579,0Z"/>
</svg>