<?xml version="1.0" encoding="utf-8"?>
<!-- Generator: Adobe Illustrator 27.1.1, SVG Export Plug-In . SVG Version: 6.00 Build 0)  -->
<svg version="1.1" id="_レイヤー_1" xmlns="http://www.w3.org/2000/svg" xmlns:xlink="http://www.w3.org/1999/xlink" x="0px"
	 y="0px" viewBox="0 0 200 200" style="enable-background:new 0 0 200 200;" xml:space="preserve">
<style type="text/css">
	.st0{fill:url(#SVGID_1_);}
</style>
<radialGradient id="SVGID_1_" cx="98.0888" cy="106.499" r="61.0679" gradientUnits="userSpaceOnUse">
	<stop  offset="0" style="stop-color:#FFB03C"/>
	<stop  offset="1" style="stop-color:#FFC842"/>
</radialGradient>
<path class="st0" d="M102.8,23.5l22.8,46.2c0.5,1.1,1.6,1.8,2.8,2l51,7.4c3,0.4,4.2,4.1,2,6.3l-36.9,36c-0.9,0.8-1.3,2.1-1.1,3.2
	l8.7,50.8c0.5,3-2.6,5.3-5.3,3.9l-45.6-24c-1.1-0.6-2.3-0.6-3.4,0l-45.6,24c-2.7,1.4-5.8-0.9-5.3-3.9l8.7-50.8
	c0.2-1.2-0.2-2.4-1.1-3.2l-36.9-36c-2.2-2.1-1-5.8,2-6.3l51-7.4c1.2-0.2,2.2-0.9,2.8-2l22.8-46.2C97.6,20.8,101.4,20.8,102.8,23.5
	L102.8,23.5z"/>
</svg>
